# xmcd
#
# Track frame offsets: 
#        150
#        24984
#        45692
#        64303
#        82590
#        101232
#        125688
#        156305
#        173425
#        195123
#
# Disc length: 2870 seconds
#
# Revision: 2
# Processed by: cddbd v1.5.2PL0 Copyright (c) Steve Scherf et al.
# Submitted via: ExactAudioCopy v0.99pb5
#
DISCID=740b340a
DTITLE=Julia Hülsmann Trio - The End of a Summer
DYEAR=2008
DGENRE=Jazz
TTITLE0=The End of a Summer
TTITLE1=Konbanwa
TTITLE2=Kiss from a Rose
TTITLE3=Last One Out
TTITLE4=Quint
TTITLE5=Senza
TTITLE6=Not the End of the World
TTITLE7=Sepia
TTITLE8=Gelb
TTITLE9=Where in the World
EXTD=YEAR: 2008
EXTT0=
EXTT1=
EXTT2=
EXTT3=
EXTT4=
EXTT5=
EXTT6=
EXTT7=
EXTT8=
EXTT9=
PLAYORDER=
